<svg width="48" height="49" viewBox="0 0 48 49" fill="none" xmlns="http://www.w3.org/2000/svg">
<rect x="1.5" y="2.41687" width="45" height="45" rx="8.5" fill="#FF0606" stroke="black" stroke-width="3"/>
<g clip-path="url(#clip0_27_2489)">
<path d="M19.9125 35.2323C18.5456 36.5991 16.3296 36.5991 14.9627 35.2323C13.5959 33.8654 13.5959 31.6493 14.9627 30.2825L19.5589 25.6863L14.9627 21.0901C13.5958 19.7233 13.5958 17.5072 14.9627 16.1404C16.3295 14.7735 18.5456 14.7735 19.9124 16.1404L24.5086 20.7366L29.1049 16.1404C30.4717 14.7735 32.6878 14.7735 34.0546 16.1404C35.4214 17.5072 35.4214 19.7233 34.0546 21.0901L29.4584 25.6863L34.0546 30.2825C35.4214 31.6493 35.4214 33.8654 34.0546 35.2322C32.6877 36.5991 30.4716 36.5991 29.1048 35.2322L24.5086 30.6361L19.9125 35.2323Z" fill="white" stroke="black" stroke-width="2"/>
</g>
<defs>
<clipPath id="clip0_27_2489">
<rect width="24" height="24" fill="white" transform="translate(12.5087 13.6863)"/>
</clipPath>
</defs>
</svg>
