<svg width="166" height="166" viewBox="0 0 166 166" fill="none" xmlns="http://www.w3.org/2000/svg">

<defs>
<linearGradient id="paint0_linear_29_3384" x1="81.7996" y1="48.4339" x2="81.7996" y2="27.5548" gradientUnits="userSpaceOnUse">
<stop stop-color="#FE85C1"/>
<stop offset="1" stop-color="#FFA6D2"/>
</linearGradient>
<linearGradient id="paint1_linear_29_3384" x1="51.1652" y1="131.567" x2="112.406" y2="131.567" gradientUnits="userSpaceOnUse">
<stop stop-color="#FF9DCE"/>
<stop offset="1" stop-color="#FFAFD7"/>
</linearGradient>
<linearGradient id="paint2_linear_29_3384" x1="81.7929" y1="126.761" x2="81.7929" y2="48.4361" gradientUnits="userSpaceOnUse">
<stop stop-color="#FF96CA"/>
<stop offset="1" stop-color="#FFB4D9"/>
</linearGradient>
<clipPath id="clip0_29_3384">
<rect width="108" height="119" fill="white" transform="translate(29 22.7876)"/>
</clipPath>
</defs>
<circle cx="83" cy="83" r="80" fill="#FDF195" stroke="black" stroke-width="5"/>
<g clip-path="url(#clip0_29_3384)">
<path d="M104.84 48.3798V32.4338C104.84 29.9348 103.4 29.1018 101.6 28.6258C99.5596 28.1498 93.3196 27.4358 81.7996 27.5548C70.2796 27.4358 64.0398 28.1498 61.9998 28.6258C60.1998 29.1018 58.7598 29.9348 58.7598 32.4338V48.3798H104.84Z" fill="url(#paint0_linear_29_3384)"/>
<path d="M112.384 126.091C112.384 129.185 112.384 133.945 112.384 137.039H51.1836C51.1836 133.945 51.1836 129.185 51.1836 126.091H112.384Z" fill="url(#paint1_linear_29_3384)"/>
<path d="M33.793 103.836C33.793 115.498 36.913 126.803 57.313 126.803H106.153C126.553 126.803 129.673 115.379 129.673 103.836V71.4677C129.673 59.8057 126.553 48.5007 106.153 48.5007H57.313C36.913 48.3817 33.793 59.8057 33.793 71.4677V103.836Z" fill="url(#paint2_linear_29_3384)"/>
<path d="M111.315 127.991C92.8348 127.515 74.3548 127.396 55.8746 127.872C54.7946 127.872 53.7146 127.872 52.6346 127.991C52.0346 127.991 52.2746 130.847 52.2746 131.323C52.2746 132.513 52.0346 133.703 52.2746 134.893C52.5146 135.964 52.9946 136.559 54.0746 136.559C54.3146 136.559 56.8346 136.559 56.9546 136.202C57.4346 132.87 59.5946 131.204 62.8346 131.204C66.7946 131.204 70.7548 131.204 74.7148 131.204C87.0748 131.085 99.4348 130.609 111.315 127.991Z" fill="#FE85C1"/>
<path d="M66.6935 131.331C66.6935 129.784 66.0935 128.713 65.3735 127.999C63.9335 127.999 62.3735 127.999 60.9335 127.999C60.2135 128.594 59.7335 129.427 59.4935 130.736C58.7735 135.615 66.6935 136.21 66.6935 131.331Z" fill="#FFE2F0"/>
<path d="M129.793 103.836V71.4677C129.793 59.8057 126.673 48.5007 106.273 48.5007H104.833C114.553 48.6197 120.673 57.9017 121.033 67.7787C121.033 67.7787 121.033 106.454 121.033 108.953C121.033 112.642 119.953 114.07 115.993 114.07H47.593C43.633 114.07 42.553 112.642 42.553 108.953C42.553 106.454 42.553 67.7787 42.553 67.7787C42.913 58.0207 49.033 48.6197 58.753 48.5007H57.313C36.913 48.3817 33.793 59.8057 33.793 71.4677V103.836C33.793 115.498 36.913 126.803 57.313 126.803H106.153C126.673 126.803 129.793 115.379 129.793 103.836Z" fill="#FE85C1"/>
<path d="M43.9941 104.314C43.9941 110.502 53.5941 110.502 53.5941 104.314V70.8748C53.5941 64.6868 43.9941 64.6868 43.9941 70.8748V104.314Z" fill="#FFC0DF"/>
<path d="M106.27 48.3813H57.3098C41.9498 48.3813 36.4298 54.8073 34.5098 62.8993C54.7898 59.5673 69.1896 59.8053 81.1896 59.8053H81.7896C93.7896 59.8053 108.67 59.5673 128.95 62.8993C127.15 54.9263 121.63 48.3813 106.27 48.3813Z" fill="#FFC4E1"/>
<path d="M58.1469 53.1449C58.7469 57.0719 43.9869 59.4519 43.3869 55.6439C42.7869 51.7169 57.5469 49.3369 58.1469 53.1449Z" fill="#FFE2F0"/>
<path d="M112.384 126.327H51.1836V127.993H112.384V126.327Z" fill="#D4A01D"/>
<path d="M104.84 46.7101H58.7598V48.3761H104.84V46.7101Z" fill="#E95DA2"/>
<path d="M65.586 43.0263V32.1973C65.586 29.5793 61.866 29.5793 61.866 32.1973V43.0263C61.746 45.6443 65.586 45.6443 65.586 43.0263Z" fill="#FFE2F0"/>
<path d="M126.959 87.2884C126.359 86.9314 125.879 87.1694 125.279 87.4074C123.719 88.2404 121.079 90.5014 118.199 92.1674C118.319 91.6914 118.319 91.0964 118.079 90.7394L117.959 90.6204C118.559 89.3114 119.399 88.5974 119.759 88.3594C120.119 88.4784 120.479 88.4784 120.839 88.3594C120.959 88.3594 121.079 88.2404 121.079 88.1214C121.439 87.7644 121.679 87.1694 121.439 86.6934C121.439 86.5744 121.319 86.5744 121.319 86.4554C120.959 85.9794 120.359 85.9794 119.879 86.2174C119.759 86.2174 119.639 86.3364 119.639 86.4554C119.279 86.6934 119.159 87.1694 119.279 87.6454C118.799 88.0024 117.959 88.7164 117.359 90.0254C117.359 90.0254 117.359 90.0254 117.239 90.0254C117.119 90.0254 116.999 90.0254 116.879 90.0254C116.639 88.8354 116.999 87.6454 117.119 87.1694C117.239 87.1694 117.359 87.1694 117.479 87.0504C117.719 86.9314 117.959 86.5744 118.079 86.3364C118.199 85.9794 118.199 85.6224 117.959 85.3844C117.839 85.1464 117.599 84.9084 117.359 84.9084C117.119 84.7894 116.759 84.9084 116.519 85.0274C116.279 85.1464 116.039 85.5034 115.919 85.7414C115.799 86.0984 115.799 86.4554 116.039 86.6934C116.039 86.8124 116.159 86.9314 116.279 86.9314C116.159 87.5264 115.799 88.9544 116.039 90.2634C115.679 90.5014 115.319 90.8584 115.199 91.3344C113.759 88.3594 112.799 85.0274 111.959 83.4804C111.599 83.0044 111.359 82.4094 110.639 82.4094C110.159 82.4094 109.799 82.6474 109.439 82.7664C106.079 84.6704 104.519 91.0964 105.839 93.9524C105.959 94.1904 106.199 94.3094 106.319 94.4284C106.199 94.7854 106.079 95.1424 105.959 95.4994C105.599 97.4034 105.359 99.3074 105.959 100.378C105.959 100.497 106.079 100.616 106.199 100.735C106.799 101.449 107.759 101.33 108.719 101.092C109.679 100.854 110.759 100.378 111.839 99.7834C112.439 99.4264 113.039 99.0694 113.639 98.8314C113.639 99.3074 113.639 99.6644 113.879 99.9024C113.999 100.021 114.119 100.259 114.359 100.259C114.599 100.378 114.839 100.259 114.959 100.14C115.199 100.021 115.439 99.6644 115.679 99.3074C115.919 99.9024 116.279 100.497 116.519 101.092C117.119 102.163 117.719 103.115 118.319 103.948C119.039 104.662 119.759 105.257 120.599 105.019C120.719 105.019 120.839 104.9 120.959 104.9C122.039 104.305 122.879 102.639 123.599 100.854C123.719 100.497 123.839 100.14 123.959 99.7834C124.199 99.7834 124.439 99.7834 124.679 99.6644C127.319 97.9984 129.599 91.6914 127.919 88.3594C127.559 88.0024 127.319 87.6454 126.959 87.2884Z" fill="#E95DA2"/>
<path d="M35.995 88.3594C34.315 91.8104 36.595 97.9984 39.235 99.6644C39.475 99.7834 39.715 99.7834 39.955 99.7834C40.075 100.14 40.195 100.497 40.315 100.854C41.035 102.639 41.995 104.305 42.955 104.9C43.075 104.9 43.195 105.019 43.315 105.019C44.275 105.257 44.995 104.662 45.595 103.948C46.315 103.234 46.915 102.163 47.395 101.092C47.755 100.497 47.995 99.9024 48.235 99.3074C48.475 99.6644 48.715 99.9024 48.955 100.14C49.075 100.259 49.315 100.259 49.555 100.259C49.795 100.14 49.915 100.021 50.035 99.9024C50.155 99.6644 50.275 99.1884 50.275 98.8314C50.755 99.1884 51.355 99.5454 52.075 99.7834C53.155 100.378 54.235 100.854 55.195 101.092C56.155 101.33 57.115 101.449 57.715 100.735C57.835 100.616 57.835 100.497 57.955 100.378C58.435 99.3074 58.315 97.4034 57.955 95.4994C57.835 95.1424 57.715 94.7854 57.595 94.4284C57.835 94.3094 57.955 94.0714 58.075 93.9524C58.075 93.9524 58.075 93.8334 58.075 93.9524C59.395 91.0964 57.715 84.6704 54.475 82.7664C54.115 82.5284 53.635 82.4094 53.275 82.4094C52.555 82.4094 52.315 82.8854 51.955 83.4804C51.115 85.0274 50.155 88.3594 48.715 91.3344C48.595 90.8584 48.235 90.5014 47.875 90.2634C48.115 88.8354 47.755 87.5264 47.635 86.9314C47.755 86.8124 47.755 86.8124 47.875 86.6934C47.995 86.4554 48.115 86.0984 47.995 85.7414C47.875 85.3844 47.635 85.1464 47.395 85.0274C47.155 84.9084 46.915 84.9084 46.555 84.9084C46.315 85.0274 46.075 85.1464 45.955 85.3844C45.835 85.5034 45.835 85.8604 45.955 86.0984C46.075 86.4554 46.315 86.6934 46.555 86.8124C46.675 86.8124 46.795 86.9314 46.915 86.9314C47.035 87.5264 47.275 88.7164 47.155 89.7874C47.035 89.7874 46.915 89.7874 46.795 89.7874C46.795 89.7874 46.795 89.7874 46.675 89.7874C46.075 88.4784 45.235 87.7644 44.755 87.4074C44.875 86.9314 44.635 86.5744 44.395 86.2174C44.275 86.0984 44.275 86.0984 44.155 85.9794C43.675 85.7414 43.075 85.7414 42.715 86.2174C42.715 86.3364 42.595 86.3364 42.595 86.4554C42.355 86.9314 42.475 87.5264 42.955 87.8834C43.075 88.0024 43.075 88.0024 43.195 88.1214C43.555 88.2404 43.915 88.3594 44.275 88.1214C44.635 88.3594 45.475 89.0734 46.075 90.3824L45.955 90.5014C45.715 90.9774 45.715 91.4534 45.835 91.9294C42.955 90.2634 40.315 88.0024 38.755 87.1694C38.155 86.9314 37.675 86.5744 37.075 87.0504C36.475 87.6454 36.235 88.0024 35.995 88.3594Z" fill="#E95DA2"/>
<path d="M95.6031 85.6295C97.5247 85.6295 99.0831 84.1376 99.0831 82.2975C99.0831 80.4574 97.5247 78.9655 95.6031 78.9655C93.6811 78.9655 92.1231 80.4574 92.1231 82.2975C92.1231 84.1376 93.6811 85.6295 95.6031 85.6295Z" fill="#EFF0EF"/>
<path d="M68.0406 85.6295C69.9624 85.6295 71.5204 84.1376 71.5204 82.2975C71.5204 80.4574 69.9624 78.9655 68.0406 78.9655C66.1186 78.9655 64.5605 80.4574 64.5605 82.2975C64.5605 84.1376 66.1186 85.6295 68.0406 85.6295Z" fill="#EFF0EF"/>
<path d="M100.301 78.6022C98.8607 78.0072 97.3007 77.4122 95.7407 77.4122C95.2607 77.4122 94.9007 77.4122 94.4207 77.5312C94.3007 77.5312 94.3007 77.5312 94.1807 77.6502C93.9407 77.6502 93.8207 77.7692 93.5807 77.8882C92.3807 78.3642 91.4207 79.0782 90.7007 80.0302C90.7007 80.1492 90.5807 80.1492 90.5807 80.1492C90.5807 80.1492 90.5807 80.2682 90.4607 80.2682C89.6207 81.4582 89.1407 83.0052 89.1407 84.5522C89.1407 88.5982 92.1407 91.8112 95.7407 91.8112C99.4607 91.8112 102.341 88.5982 102.341 84.5522C102.341 83.6002 102.221 82.7672 101.861 82.0532C102.101 82.0532 102.461 82.0532 102.821 81.9342C103.901 81.4582 104.501 79.4352 104.501 79.0782C103.781 79.4352 102.101 79.4352 100.301 78.6022ZM95.6207 84.6712C94.1807 84.6712 93.1007 83.6002 93.1007 82.2912C93.1007 80.9822 94.1807 79.9112 95.6207 79.9112C97.0607 79.9112 98.1407 80.9822 98.1407 82.2912C98.1407 83.6002 97.0607 84.6712 95.6207 84.6712Z" fill="black"/>
<path d="M73.3068 80.388L73.1868 80.269C73.1868 80.15 73.0668 80.15 73.0668 80.15C72.3468 79.198 71.2668 78.365 70.1868 78.008C69.9468 77.889 69.8268 77.889 69.5868 77.77C69.4668 77.77 69.4668 77.77 69.3468 77.651C68.8669 77.532 68.5069 77.532 68.0269 77.532C66.3469 77.532 64.7869 78.246 63.4669 78.722C61.6669 79.436 59.8669 79.555 59.2669 79.198C59.1469 79.555 59.8669 81.697 60.9469 82.054C61.3069 82.173 61.5469 82.173 61.9069 82.173C61.6669 83.006 61.4269 83.839 61.4269 84.672C61.4269 88.718 64.4269 91.931 68.0269 91.931C71.7468 91.931 74.6268 88.718 74.6268 84.672C74.6268 83.006 74.1468 81.578 73.3068 80.388ZM68.0269 84.672C66.5869 84.672 65.5069 83.601 65.5069 82.292C65.5069 80.983 66.5869 79.912 68.0269 79.912C69.4668 79.912 70.5468 80.983 70.5468 82.292C70.5468 83.601 69.3468 84.672 68.0269 84.672Z" fill="black"/>
<path d="M71.2808 102.404C72.9608 104.07 77.5208 106.569 81.8408 106.688C86.1608 106.807 91.2008 104.903 91.2008 104.903C91.6808 104.665 95.1608 103.356 92.2808 105.855C89.4008 108.235 86.0408 109.306 81.8408 109.306C81.8408 109.306 81.8408 109.306 81.7208 109.306C77.8808 109.306 73.4408 108.235 70.9208 104.189C70.5608 103.594 69.6008 100.738 71.2808 102.404Z" fill="black"/>
<path d="M57.6032 73.2416C58.8032 65.7446 70.2032 66.8156 72.7232 68.3626C73.2032 68.6006 73.4432 69.4336 73.3232 70.1476C73.2032 70.7426 72.4832 71.8136 72.0032 71.5756C70.0832 70.3856 60.1232 69.5526 57.8432 74.5506C57.4832 74.0746 57.6032 73.2416 57.6032 73.2416Z" fill="black"/>
<path d="M106.076 72.6518C105.596 65.1548 94.1958 65.0358 91.5558 66.3448C91.0758 66.5828 90.7158 67.2968 90.8358 68.0108C90.8358 68.7248 91.5558 69.7958 92.0358 69.5578C94.0758 68.4868 104.156 68.6058 105.836 73.8418C106.076 73.4848 106.076 72.6518 106.076 72.6518Z" fill="black"/>
<path d="M122.775 92.1598C123.375 92.5168 123.495 92.9928 123.375 93.4688C123.135 94.0638 122.655 94.1828 122.055 93.8258C121.455 93.5878 121.095 92.9928 121.455 92.5168C121.695 92.1598 122.175 91.9218 122.775 92.1598ZM113.895 96.9198C113.535 97.5148 113.655 97.8718 114.255 98.1098C114.855 98.4668 115.575 98.3478 115.695 97.7528C115.815 97.0388 115.815 96.9198 115.215 96.5628C114.615 96.3248 114.255 96.4438 113.895 96.9198ZM108.855 89.4228C108.495 90.0178 108.615 90.3748 109.215 90.6128C109.815 90.9698 110.535 90.8508 110.655 90.2558C110.775 89.5418 110.775 89.4228 110.175 89.0658C109.575 88.8278 109.215 88.9468 108.855 89.4228Z" fill="#8F2733"/>
<path d="M40.7967 92.0388C41.2767 91.6818 41.5167 91.6818 42.1167 92.0388C42.7167 92.3958 42.4767 93.1098 41.9967 93.4668C41.5167 93.8238 41.1567 93.8238 40.6767 93.3478C40.1967 92.7528 40.3167 92.3958 40.7967 92.0388ZM50.7567 90.8488C51.1167 91.3248 51.5967 91.3248 52.0767 90.9678C52.5567 90.6108 52.7967 89.8968 52.3167 89.5398C51.7167 89.1828 51.4767 89.1828 50.9967 89.5398C50.3967 89.8968 50.2767 90.2538 50.7567 90.8488ZM48.1167 98.4648C48.4767 98.9408 48.9567 98.9408 49.4367 98.5838C49.9167 98.2268 50.1567 97.5128 49.6767 97.1558C49.0767 96.7988 48.8367 96.7988 48.3567 97.1558C47.7567 97.5128 47.6367 97.9888 48.1167 98.4648Z" fill="#8F2733"/>
<path d="M109.64 43.7316V32.4266C109.64 29.9276 108.68 25.4056 102.68 23.9776C100.28 23.3826 94.04 22.7876 83.84 22.7876C83.24 22.7876 82.52 22.7876 81.8 22.7876C81.08 22.7876 80.48 22.7876 79.76 22.7876C69.56 22.7876 63.32 23.3826 60.92 23.9776C54.92 25.4056 53.96 29.9276 53.96 32.4266V43.7316C29 45.3976 29 64.7946 29 71.4586V103.827C29 109.42 29 125.604 46.4 130.245V137.028C46.4 139.646 48.56 141.788 51.2 141.788H112.4C115.04 141.788 117.2 139.646 117.2 137.028V130.245C134.6 125.485 134.6 109.301 134.6 103.827V71.4586C134.6 64.7946 134.6 45.3976 109.64 43.7316ZM51.2 137.028C51.2 135.005 51.2 132.387 51.2 129.888H112.4C112.4 132.387 112.4 135.005 112.4 137.028H51.2ZM129.8 103.827C129.8 114.18 127.28 124.295 112.4 126.437H51.2C36.32 124.176 33.8 114.061 33.8 103.827V71.4586C33.8 59.7966 36.92 48.4916 57.32 48.4916H58.64V32.4266C58.64 29.9276 60.08 29.0946 61.88 28.6186C63.92 28.1426 69.56 27.5476 79.76 27.5476C80.36 27.5476 81.08 27.5476 81.8 27.5476C82.52 27.5476 83.12 27.5476 83.84 27.5476C94.04 27.5476 99.8 28.1426 101.6 28.6186C103.4 29.0946 104.84 29.9276 104.84 32.4266V48.3726H106.16C126.56 48.3726 129.68 59.7966 129.68 71.3396V103.827H129.8Z" fill="black"/>
</g>
</svg>
