<svg width="166" height="166" viewBox="0 0 166 166" fill="none" xmlns="http://www.w3.org/2000/svg">
<circle cx="83" cy="83" r="80" fill="#FDF195"/>
<circle cx="83" cy="83" r="80" fill="black"/>
<circle cx="83" cy="83" r="80" stroke="black" stroke-width="5"/>
<circle cx="83" cy="83" r="80" stroke="white" stroke-width="5"/>
<path d="M111.473 43.7316V32.4266C111.473 29.9276 110.491 25.4056 104.355 23.9776C101.9 23.3826 95.5182 22.7876 85.0864 22.7876C84.4727 22.7876 83.7364 22.7876 83 22.7876C82.2636 22.7876 81.65 22.7876 80.9136 22.7876C70.4818 22.7876 64.1 23.3826 61.6455 23.9776C55.5091 25.4056 54.5273 29.9276 54.5273 32.4266V43.7316C29 45.3976 29 64.7946 29 71.4586V103.827C29 109.42 29 125.604 46.7955 130.245V137.028C46.7955 139.646 49.0045 141.788 51.7045 141.788H114.295C116.995 141.788 119.205 139.646 119.205 137.028V130.245C137 125.485 137 109.301 137 103.827V71.4586C137 64.7946 137 45.3976 111.473 43.7316ZM51.7045 137.028C51.7045 135.005 51.7045 132.387 51.7045 129.888H114.295C114.295 132.387 114.295 135.005 114.295 137.028H51.7045ZM132.091 103.827C132.091 114.18 129.514 124.295 114.295 126.437H51.7045C36.4864 124.176 33.9091 114.061 33.9091 103.827V71.4586C33.9091 59.7966 37.1 48.4916 57.9636 48.4916H59.3136V32.4266C59.3136 29.9276 60.7864 29.0946 62.6273 28.6186C64.7136 28.1426 70.4818 27.5476 80.9136 27.5476C81.5273 27.5476 82.2636 27.5476 83 27.5476C83.7364 27.5476 84.35 27.5476 85.0864 27.5476C95.5182 27.5476 101.409 28.1426 103.25 28.6186C105.091 29.0946 106.564 29.9276 106.564 32.4266V48.3726H107.914C128.777 48.3726 131.968 59.7966 131.968 71.3396V103.827H132.091Z" fill="#EEBD17"/>
</svg>
