<svg width="166" height="166" viewBox="0 0 166 166" fill="none" xmlns="http://www.w3.org/2000/svg">
<circle cx="83.2314" cy="82.6313" r="80" fill="#FDF195" stroke="black" stroke-width="5"/>
<g clip-path="url(#clip0_112_2052)">
<path d="M105.071 48.0113V32.0653C105.071 29.5663 103.631 28.7333 101.831 28.2573C99.7911 27.7813 93.551 27.0673 82.031 27.1863C70.511 27.0673 64.2712 27.7813 62.2312 28.2573C60.4312 28.7333 58.9912 29.5663 58.9912 32.0653V48.0113H105.071Z" fill="url(#paint0_linear_112_2052)"/>
<path d="M112.615 125.722C112.615 128.816 112.615 133.576 112.615 136.67H51.415C51.415 133.576 51.415 128.816 51.415 125.722H112.615Z" fill="url(#paint1_linear_112_2052)"/>
<path d="M34.0244 103.467C34.0244 115.129 37.1444 126.434 57.5444 126.434H106.384C126.784 126.434 129.904 115.01 129.904 103.467V71.0991C129.904 59.437 126.784 48.132 106.384 48.132H57.5444C37.1444 48.013 34.0244 59.437 34.0244 71.0991V103.467Z" fill="url(#paint2_linear_112_2052)"/>
<path d="M111.546 127.623C93.0662 127.147 74.5862 127.028 56.1061 127.504C55.0261 127.504 53.9461 127.504 52.8661 127.623C52.2661 127.623 52.5061 130.479 52.5061 130.955C52.5061 132.145 52.2661 133.335 52.5061 134.525C52.7461 135.596 53.2261 136.191 54.3061 136.191C54.5461 136.191 57.0661 136.191 57.1861 135.834C57.6661 132.502 59.8261 130.836 63.0661 130.836C67.0261 130.836 70.9862 130.836 74.9462 130.836C87.3062 130.717 99.6662 130.241 111.546 127.623Z" fill="#F4C31E"/>
<path d="M66.925 130.962C66.925 129.415 66.325 128.344 65.605 127.63C64.165 127.63 62.605 127.63 61.165 127.63C60.445 128.225 59.965 129.058 59.725 130.367C59.005 135.246 66.925 135.841 66.925 130.962Z" fill="#F9DF4F"/>
<path d="M130.024 103.467V71.0991C130.024 59.437 126.904 48.132 106.504 48.132H105.064C114.784 48.251 120.904 57.533 121.264 67.4101C121.264 67.4101 121.264 106.085 121.264 108.584C121.264 112.273 120.184 113.701 116.224 113.701H47.8244C43.8644 113.701 42.7844 112.273 42.7844 108.584C42.7844 106.085 42.7844 67.4101 42.7844 67.4101C43.1444 57.652 49.2644 48.251 58.9844 48.132H57.5444C37.1444 48.013 34.0244 59.437 34.0244 71.0991V103.467C34.0244 115.129 37.1444 126.434 57.5444 126.434H106.384C126.904 126.434 130.024 115.01 130.024 103.467Z" fill="#F4C31E"/>
<path d="M44.2256 103.945C44.2256 110.133 53.8256 110.133 53.8256 103.945V70.5062C53.8256 64.3182 44.2256 64.3182 44.2256 70.5062V103.945Z" fill="#F9DF4F"/>
<path d="M106.501 48.0127H57.5412C42.1812 48.0127 36.6612 54.4387 34.7412 62.5307C55.0212 59.1987 69.4211 59.4367 81.4211 59.4367H82.021C94.021 59.4367 108.901 59.1987 129.181 62.5307C127.381 54.5577 121.861 48.0127 106.501 48.0127Z" fill="#FDE76F"/>
<path d="M58.3784 52.7762C58.9784 56.7032 44.2184 59.0832 43.6184 55.2752C43.0184 51.3482 57.7784 48.9682 58.3784 52.7762Z" fill="#FDF5A5"/>
<path d="M112.615 125.959H51.415V127.625H112.615V125.959Z" fill="#D4A01D"/>
<path d="M105.071 46.3413H58.9912V48.0073H105.071V46.3413Z" fill="#D4A01D"/>
<path d="M65.8175 42.6575V31.8285C65.8175 29.2105 62.0975 29.2105 62.0975 31.8285V42.6575C61.9775 45.2755 65.8175 45.2755 65.8175 42.6575Z" fill="#FDF195"/>
<path d="M92.5991 101.898C90.9191 103.564 86.3591 106.063 82.0391 106.182C77.7191 106.301 72.6791 104.397 72.6791 104.397C72.1991 104.159 68.7191 102.85 71.5991 105.349C74.4791 107.729 77.8391 108.8 82.0391 108.8C82.0391 108.8 82.0391 108.8 82.1591 108.8C85.9991 108.8 90.4391 107.729 93.0791 103.683C93.3191 103.088 94.2791 100.232 92.5991 101.898Z" fill="black"/>
<path d="M68.0689 85.0995C69.9906 85.0995 71.549 83.6077 71.549 81.7675C71.549 79.9274 69.9906 78.4355 68.0689 78.4355C66.1469 78.4355 64.5889 79.9274 64.5889 81.7675C64.5889 83.6077 66.1469 85.0995 68.0689 85.0995Z" fill="#EFF0EF"/>
<path d="M95.811 85.0995C97.733 85.0995 99.291 83.6077 99.291 81.7675C99.291 79.9274 97.733 78.4355 95.811 78.4355C93.889 78.4355 92.3311 79.9274 92.3311 81.7675C92.3311 83.6077 93.889 85.0995 95.811 85.0995Z" fill="#EFF0EF"/>
<path d="M68.0873 76.8972C64.3673 76.8972 61.4873 80.1102 61.4873 84.1562C61.4873 88.2022 64.4873 91.4152 68.0873 91.4152C71.8075 91.4152 74.6875 88.2022 74.6875 84.1562C74.6875 80.1102 71.6875 76.8972 68.0873 76.8972ZM68.0873 84.1562C66.6473 84.1562 65.5673 83.0852 65.5673 81.7762C65.5673 80.4672 66.7673 79.3962 68.0873 79.3962C69.5275 79.3962 70.6075 80.4672 70.6075 81.7762C70.6075 83.0852 69.4075 84.1562 68.0873 84.1562Z" fill="black"/>
<path d="M95.7982 76.8972C92.0782 76.8972 89.1982 80.1102 89.1982 84.1562C89.1982 88.2022 92.1982 91.4152 95.7982 91.4152C99.5182 91.4152 102.398 88.2022 102.398 84.1562C102.398 80.1102 99.5182 76.8972 95.7982 76.8972ZM95.7982 84.1562C94.3582 84.1562 93.2782 83.0852 93.2782 81.7762C93.2782 80.4672 94.4782 79.3962 95.7982 79.3962C97.2382 79.3962 98.3182 80.4672 98.3182 81.7762C98.3182 83.0852 97.2382 84.1562 95.7982 84.1562Z" fill="black"/>
<path d="M57.5537 72.0274C58.0337 64.5304 69.4338 64.4114 72.1938 65.7204C72.6738 65.9584 73.0338 66.6724 72.9138 67.3864C72.9138 68.1004 72.1938 69.1714 71.7138 68.9334C69.6738 67.8624 59.5937 67.9814 57.9137 73.2174C57.6737 72.9794 57.5537 72.0274 57.5537 72.0274Z" fill="black"/>
<path d="M106.265 72.6251C105.065 65.1281 93.6652 66.0801 91.1452 67.7461C90.6652 67.9841 90.4252 68.8171 90.5452 69.5311C90.6652 70.2451 91.3852 71.1971 91.8652 70.9591C93.7852 69.7691 103.865 68.9361 106.025 73.9341C106.265 73.5771 106.265 72.6251 106.265 72.6251Z" fill="black"/>
<path d="M47.5916 90.1167C47.5916 90.7117 47.1116 91.0687 46.3916 91.0687C45.7916 91.0687 45.3116 90.7117 45.4316 90.1167C45.5516 89.6407 45.9116 89.2837 46.6316 89.2837C47.2316 89.2837 47.5916 89.7597 47.5916 90.1167ZM50.8316 96.8997C50.2316 96.8997 50.1116 97.0187 49.7516 97.7327C49.5116 98.3277 50.1116 98.8037 50.8316 98.8037C51.4316 98.8037 51.7916 98.5657 51.7916 97.8517C51.7916 97.2567 51.5516 96.8997 50.8316 96.8997ZM58.9916 92.9727C58.3916 92.9727 58.2716 93.0917 57.9116 93.8057C57.6716 94.4007 58.2716 94.8767 58.9916 94.8767C59.5916 94.8767 59.9516 94.6387 59.9516 93.9247C59.9516 93.3297 59.7116 92.9727 58.9916 92.9727Z" fill="#C3622C"/>
<path d="M114.32 89.2902C114.32 89.8852 114.08 90.1232 113.36 90.1232C112.76 90.1232 112.04 89.6472 112.28 89.0522C112.52 88.4572 112.64 88.2192 113.36 88.2192C113.96 88.4572 114.32 88.6952 114.32 89.2902ZM103.76 92.6222C103.16 92.6222 103.04 92.7412 102.68 93.4552C102.44 94.0502 103.04 94.5262 103.76 94.5262C104.36 94.5262 104.72 94.2882 104.72 93.6932C104.72 92.9792 104.48 92.6222 103.76 92.6222ZM110.72 97.1442C110.12 97.1442 110 97.2632 109.64 97.9772C109.4 98.5722 110 99.0482 110.72 99.0482C111.32 99.0482 111.68 98.8102 111.68 98.2152C111.68 97.3822 111.32 97.1442 110.72 97.1442Z" fill="#C3622C"/>
<path d="M109.871 43.3629V32.0579C109.871 29.5589 108.911 25.0369 102.911 23.6089C100.511 23.0139 94.2714 22.4189 84.0714 22.4189C83.4714 22.4189 82.7514 22.4189 82.0314 22.4189C81.3114 22.4189 80.7114 22.4189 79.9914 22.4189C69.7914 22.4189 63.5514 23.0139 61.1514 23.6089C55.1514 25.0369 54.1914 29.5589 54.1914 32.0579V43.3629C29.2314 45.0289 29.2314 64.4259 29.2314 71.0899V103.458C29.2314 109.051 29.2314 125.235 46.6314 129.876V136.659C46.6314 139.277 48.7914 141.419 51.4314 141.419H112.631C115.271 141.419 117.431 139.277 117.431 136.659V129.876C134.831 125.116 134.831 108.932 134.831 103.458V71.0899C134.831 64.4259 134.831 45.0289 109.871 43.3629ZM51.4314 136.659C51.4314 134.636 51.4314 132.018 51.4314 129.519H112.631C112.631 132.018 112.631 134.636 112.631 136.659H51.4314ZM130.031 103.458C130.031 113.811 127.511 123.926 112.631 126.068H51.4314C36.5514 123.807 34.0314 113.692 34.0314 103.458V71.0899C34.0314 59.4279 37.1514 48.1229 57.5514 48.1229H58.8714V32.0579C58.8714 29.5589 60.3114 28.7259 62.1114 28.2499C64.1514 27.7739 69.7914 27.1789 79.9914 27.1789C80.5914 27.1789 81.3114 27.1789 82.0314 27.1789C82.7514 27.1789 83.3514 27.1789 84.0714 27.1789C94.2714 27.1789 100.031 27.7739 101.831 28.2499C103.631 28.7259 105.071 29.5589 105.071 32.0579V48.0039H106.391C126.791 48.0039 129.911 59.4279 129.911 70.9709V103.458H130.031Z" fill="black"/>
</g>
<defs>
<linearGradient id="paint0_linear_112_2052" x1="82.0311" y1="48.0654" x2="82.0311" y2="27.1863" gradientUnits="userSpaceOnUse">
<stop stop-color="#FAC821"/>
<stop offset="1" stop-color="#FAD81E"/>
</linearGradient>
<linearGradient id="paint1_linear_112_2052" x1="51.3967" y1="131.199" x2="112.637" y2="131.199" gradientUnits="userSpaceOnUse">
<stop stop-color="#FAC821"/>
<stop offset="1" stop-color="#FAD81E"/>
</linearGradient>
<linearGradient id="paint2_linear_112_2052" x1="82.0243" y1="126.392" x2="82.0243" y2="48.0674" gradientUnits="userSpaceOnUse">
<stop stop-color="#FAC821"/>
<stop offset="1" stop-color="#FAD81E"/>
</linearGradient>
<clipPath id="clip0_112_2052">
<rect width="108" height="119" fill="white" transform="translate(29.2314 22.4189)"/>
</clipPath>
</defs>
</svg>
