<svg width="226" height="226" viewBox="0 0 226 226" fill="none" xmlns="http://www.w3.org/2000/svg">
<g filter="url(#filter0_d_35_820)">
<circle cx="112.541" cy="102" r="90" fill="black"/>
<circle cx="112.541" cy="102" r="90" stroke="#F4C31E" stroke-width="5"/>
</g>
<g clip-path="url(#clip0_35_820)">
<path d="M134.216 68.0922V52.1462C134.216 49.6472 132.787 48.8142 131 48.3382C128.976 47.8622 122.783 47.1482 111.35 47.2672C99.9167 47.1482 93.724 47.8622 91.6994 48.3382C89.913 48.8142 88.4838 49.6472 88.4838 52.1462V68.0922H134.216Z" fill="url(#paint0_linear_35_820)"/>
<path d="M141.703 145.803C141.703 148.897 141.703 153.657 141.703 156.751H80.965C80.965 153.657 80.965 148.897 80.965 145.803H141.703Z" fill="url(#paint1_linear_35_820)"/>
<path d="M63.7057 123.548C63.7057 135.21 66.8021 146.515 87.0481 146.515H135.519C155.765 146.515 158.861 135.091 158.861 123.548V91.1801C158.861 79.5181 155.765 68.2131 135.519 68.2131H87.0481C66.8021 68.0941 63.7057 79.5181 63.7057 91.1801V123.548Z" fill="url(#paint2_linear_35_820)"/>
<path d="M140.642 147.704C122.302 147.228 103.961 147.109 85.6205 147.585C84.5487 147.585 83.4768 147.585 82.405 147.704C81.8095 147.704 82.0477 150.56 82.0477 151.036C82.0477 152.226 81.8095 153.416 82.0477 154.606C82.2859 155.677 82.7623 156.272 83.8341 156.272C84.0723 156.272 86.5733 156.272 86.6924 155.915C87.1687 152.583 89.3124 150.917 92.5279 150.917C96.458 150.917 100.388 150.917 104.318 150.917C116.585 150.798 128.852 150.322 140.642 147.704Z" fill="#F4C31E"/>
<path d="M96.3578 151.043C96.3578 149.496 95.7623 148.425 95.0477 147.711C93.6186 147.711 92.0704 147.711 90.6412 147.711C89.9267 148.306 89.4503 149.139 89.2121 150.448C88.4976 155.327 96.3578 155.922 96.3578 151.043Z" fill="#F9DF4F"/>
<path d="M158.981 123.548V91.1801C158.981 79.5181 155.884 68.2131 135.638 68.2131H134.209C143.856 68.3321 149.929 77.6141 150.287 87.4912C150.287 87.4912 150.287 126.166 150.287 128.665C150.287 132.354 149.215 133.782 145.285 133.782H77.4015C73.4714 133.782 72.3995 132.354 72.3995 128.665C72.3995 126.166 72.3995 87.4912 72.3995 87.4912C72.7568 77.7331 78.8306 68.3321 88.4772 68.2131H87.0481C66.8021 68.0941 63.7057 79.5181 63.7057 91.1801V123.548C63.7057 135.21 66.8021 146.515 87.0481 146.515H135.519C155.884 146.515 158.981 135.091 158.981 123.548Z" fill="#F4C31E"/>
<path d="M73.8297 124.026C73.8297 130.214 83.3572 130.214 83.3572 124.026V90.5872C83.3572 84.3992 73.8297 84.3992 73.8297 90.5872V124.026Z" fill="#F9DF4F"/>
<path d="M135.635 68.0938H87.0449C71.8009 68.0938 66.3226 74.5198 64.4171 82.6118C84.5439 79.2798 98.835 79.5178 110.744 79.5178H111.34C123.249 79.5178 138.017 79.2798 158.144 82.6118C156.357 74.6388 150.879 68.0938 135.635 68.0938Z" fill="#FDE76F"/>
<path d="M87.8757 72.8573C88.4712 76.7843 73.8227 79.1643 73.2272 75.3563C72.6317 71.4293 87.2803 69.0493 87.8757 72.8573Z" fill="#FDF5A5"/>
<path d="M141.703 146.04H80.965V147.706H141.703V146.04Z" fill="#D4A01D"/>
<path d="M134.216 66.4225H88.4838V68.0885H134.216V66.4225Z" fill="#D4A01D"/>
<path d="M95.2586 62.7387V51.9097C95.2586 49.2917 91.5667 49.2917 91.5667 51.9097V62.7387C91.4476 65.3567 95.2586 65.3567 95.2586 62.7387Z" fill="#FDF195"/>
<path d="M121.838 121.979C120.171 123.645 115.645 126.144 111.358 126.263C107.07 126.382 102.068 124.478 102.068 124.478C101.592 124.24 98.1383 122.931 100.997 125.43C103.855 127.81 107.189 128.881 111.358 128.881C111.358 128.881 111.358 128.881 111.477 128.881C115.288 128.881 119.694 127.81 122.314 123.764C122.553 123.169 123.505 120.313 121.838 121.979Z" fill="black"/>
<path d="M97.493 105.181C99.4003 105.181 100.947 103.689 100.947 101.849C100.947 100.008 99.4003 98.5166 97.493 98.5166C95.5856 98.5166 94.0393 100.008 94.0393 101.849C94.0393 103.689 95.5856 105.181 97.493 105.181Z" fill="#EFF0EF"/>
<path d="M125.026 105.181C126.933 105.181 128.479 103.689 128.479 101.849C128.479 100.008 126.933 98.5166 125.026 98.5166C123.118 98.5166 121.572 100.008 121.572 101.849C121.572 103.689 123.118 105.181 125.026 105.181Z" fill="#EFF0EF"/>
<path d="M97.5114 96.9782C93.8195 96.9782 90.9612 100.191 90.9612 104.237C90.9612 108.283 93.9386 111.496 97.5114 111.496C101.203 111.496 104.062 108.283 104.062 104.237C104.062 100.191 101.084 96.9782 97.5114 96.9782ZM97.5114 104.237C96.0823 104.237 95.0104 103.166 95.0104 101.857C95.0104 100.548 96.2013 99.4772 97.5114 99.4772C98.9406 99.4772 100.012 100.548 100.012 101.857C100.012 103.166 98.8215 104.237 97.5114 104.237Z" fill="black"/>
<path d="M125.013 96.9782C121.321 96.9782 118.463 100.191 118.463 104.237C118.463 108.283 121.44 111.496 125.013 111.496C128.705 111.496 131.563 108.283 131.563 104.237C131.563 100.191 128.705 96.9782 125.013 96.9782ZM125.013 104.237C123.584 104.237 122.512 103.166 122.512 101.857C122.512 100.548 123.703 99.4772 125.013 99.4772C126.442 99.4772 127.514 100.548 127.514 101.857C127.514 103.166 126.442 104.237 125.013 104.237Z" fill="black"/>
<path d="M87.0573 92.1084C87.5336 84.6114 98.8476 84.4924 101.587 85.8014C102.063 86.0394 102.42 86.7534 102.301 87.4674C102.301 88.1814 101.587 89.2524 101.11 89.0144C99.0858 87.9434 89.0818 88.0624 87.4145 93.2984C87.1763 93.0604 87.0573 92.1084 87.0573 92.1084Z" fill="black"/>
<path d="M135.401 92.7061C134.21 85.2091 122.896 86.1611 120.395 87.8271C119.919 88.0651 119.68 88.8981 119.8 89.6121C119.919 90.3261 120.633 91.2781 121.11 91.0401C123.015 89.8501 133.019 89.0171 135.163 94.0151C135.401 93.6581 135.401 92.7061 135.401 92.7061Z" fill="black"/>
<path d="M77.1704 110.198C77.1704 110.793 76.694 111.15 75.9794 111.15C75.384 111.15 74.9076 110.793 75.0267 110.198C75.1458 109.722 75.503 109.365 76.2176 109.365C76.8131 109.365 77.1704 109.841 77.1704 110.198ZM80.3859 116.981C79.7904 116.981 79.6713 117.1 79.3141 117.814C79.0759 118.409 79.6713 118.885 80.3859 118.885C80.9814 118.885 81.3386 118.647 81.3386 117.933C81.3386 117.338 81.1005 116.981 80.3859 116.981ZM88.4843 113.054C87.8888 113.054 87.7697 113.173 87.4124 113.887C87.1742 114.482 87.7697 114.958 88.4843 114.958C89.0797 114.958 89.437 114.72 89.437 114.006C89.437 113.411 89.1988 113.054 88.4843 113.054Z" fill="#C3622C"/>
<path d="M143.395 109.371C143.395 109.966 143.156 110.204 142.442 110.204C141.846 110.204 141.132 109.728 141.37 109.133C141.608 108.538 141.727 108.3 142.442 108.3C143.037 108.538 143.395 108.776 143.395 109.371ZM132.914 112.703C132.319 112.703 132.2 112.822 131.842 113.536C131.604 114.131 132.2 114.607 132.914 114.607C133.51 114.607 133.867 114.369 133.867 113.774C133.867 113.06 133.629 112.703 132.914 112.703ZM139.822 117.225C139.226 117.225 139.107 117.344 138.75 118.058C138.512 118.653 139.107 119.129 139.822 119.129C140.417 119.129 140.774 118.891 140.774 118.296C140.774 117.463 140.417 117.225 139.822 117.225Z" fill="#C3622C"/>
<path d="M138.98 63.444V52.139C138.98 49.64 138.027 45.118 132.072 43.69C129.691 43.095 123.498 42.5 113.375 42.5C112.779 42.5 112.065 42.5 111.35 42.5C110.636 42.5 110.04 42.5 109.326 42.5C99.2025 42.5 93.0097 43.095 90.6278 43.69C84.6731 45.118 83.7204 49.64 83.7204 52.139V63.444C58.9489 65.11 58.9489 84.507 58.9489 91.171V123.539C58.9489 129.132 58.9489 145.316 76.2175 149.957V156.74C76.2175 159.358 78.3611 161.5 80.9812 161.5H141.719C144.339 161.5 146.483 159.358 146.483 156.74V149.957C163.751 145.197 163.751 129.013 163.751 123.539V91.171C163.751 84.507 163.751 65.11 138.98 63.444ZM80.9812 156.74C80.9812 154.717 80.9812 152.099 80.9812 149.6H141.719C141.719 152.099 141.719 154.717 141.719 156.74H80.9812ZM158.988 123.539C158.988 133.892 156.487 144.007 141.719 146.149H80.9812C66.2136 143.888 63.7126 133.773 63.7126 123.539V91.171C63.7126 79.509 66.809 68.204 87.055 68.204H88.365V52.139C88.365 49.64 89.7941 48.807 91.5806 48.331C93.6051 47.855 99.2025 47.26 109.326 47.26C109.921 47.26 110.636 47.26 111.35 47.26C112.065 47.26 112.66 47.26 113.375 47.26C123.498 47.26 129.214 47.855 131.001 48.331C132.787 48.807 134.216 49.64 134.216 52.139V68.085H135.526C155.772 68.085 158.869 79.509 158.869 91.052V123.539H158.988Z" fill="black"/>
</g>
<defs>
<filter id="filter0_d_35_820" x="0.0410156" y="0.5" width="225" height="225" filterUnits="userSpaceOnUse" color-interpolation-filters="sRGB">
<feFlood flood-opacity="0" result="BackgroundImageFix"/>
<feColorMatrix in="SourceAlpha" type="matrix" values="0 0 0 0 0 0 0 0 0 0 0 0 0 0 0 0 0 0 127 0" result="hardAlpha"/>
<feOffset dy="11"/>
<feGaussianBlur stdDeviation="10"/>
<feComposite in2="hardAlpha" operator="out"/>
<feColorMatrix type="matrix" values="0 0 0 0 0 0 0 0 0 0 0 0 0 0 0 0 0 0 0.34 0"/>
<feBlend mode="normal" in2="BackgroundImageFix" result="effect1_dropShadow_35_820"/>
<feBlend mode="normal" in="SourceGraphic" in2="effect1_dropShadow_35_820" result="shape"/>
</filter>
<linearGradient id="paint0_linear_35_820" x1="111.35" y1="68.1464" x2="111.35" y2="47.2672" gradientUnits="userSpaceOnUse">
<stop stop-color="#FAC821"/>
<stop offset="1" stop-color="#FAD81E"/>
</linearGradient>
<linearGradient id="paint1_linear_35_820" x1="80.9467" y1="151.28" x2="141.725" y2="151.28" gradientUnits="userSpaceOnUse">
<stop stop-color="#FAC821"/>
<stop offset="1" stop-color="#FAD81E"/>
</linearGradient>
<linearGradient id="paint2_linear_35_820" x1="111.343" y1="146.473" x2="111.343" y2="68.1485" gradientUnits="userSpaceOnUse">
<stop stop-color="#FAC821"/>
<stop offset="1" stop-color="#FAD81E"/>
</linearGradient>
<clipPath id="clip0_35_820">
<rect width="107.184" height="119" fill="white" transform="translate(58.9489 42.5)"/>
</clipPath>
</defs>
</svg>
