<svg width="226" height="226" viewBox="0 0 226 226" fill="none" xmlns="http://www.w3.org/2000/svg">
<g filter="url(#filter0_d_35_821)">
<circle cx="112.611" cy="102" r="90" fill="black"/>
<circle cx="112.611" cy="102" r="90" stroke="#F4C31E" stroke-width="5"/>
</g>
<path d="M134.451 68.0922V52.1462C134.451 49.6472 133.011 48.8142 131.211 48.3382C129.171 47.8622 122.931 47.1482 111.411 47.2672C99.8909 47.1482 93.6511 47.8622 91.6111 48.3382C89.8111 48.8142 88.3711 49.6472 88.3711 52.1462V68.0922H134.451Z" fill="url(#paint0_linear_35_821)"/>
<path d="M141.995 145.803C141.995 148.897 141.995 153.657 141.995 156.751H80.795C80.795 153.657 80.795 148.897 80.795 145.803H141.995Z" fill="url(#paint1_linear_35_821)"/>
<path d="M63.4044 123.548C63.4044 135.21 66.5244 146.515 86.9244 146.515H135.764C156.164 146.515 159.284 135.091 159.284 123.548V91.1801C159.284 79.5181 156.164 68.2131 135.764 68.2131H86.9244C66.5244 68.0941 63.4044 79.5181 63.4044 91.1801V123.548Z" fill="url(#paint2_linear_35_821)"/>
<path d="M140.926 147.704C122.446 147.228 103.966 147.109 85.4859 147.585C84.4059 147.585 83.3259 147.585 82.2459 147.704C81.6459 147.704 81.8859 150.56 81.8859 151.036C81.8859 152.226 81.6459 153.416 81.8859 154.606C82.1259 155.677 82.6059 156.272 83.6859 156.272C83.9259 156.272 86.4459 156.272 86.5659 155.915C87.0459 152.583 89.2059 150.917 92.4459 150.917C96.4059 150.917 100.366 150.917 104.326 150.917C116.686 150.798 129.046 150.322 140.926 147.704Z" fill="#FE85C1"/>
<path d="M96.3048 151.043C96.3048 149.496 95.7048 148.425 94.9848 147.711C93.5448 147.711 91.9848 147.711 90.5448 147.711C89.8248 148.306 89.3448 149.139 89.1048 150.448C88.3848 155.327 96.3048 155.922 96.3048 151.043Z" fill="#FFE2F0"/>
<path d="M159.404 123.548V91.1801C159.404 79.5181 156.284 68.2131 135.884 68.2131H134.444C144.164 68.3321 150.284 77.6141 150.644 87.4911C150.644 87.4911 150.644 126.166 150.644 128.665C150.644 132.354 149.564 133.782 145.604 133.782H77.2044C73.2444 133.782 72.1644 132.354 72.1644 128.665C72.1644 126.166 72.1644 87.4911 72.1644 87.4911C72.5244 77.7331 78.6444 68.3321 88.3644 68.2131H86.9244C66.5244 68.0941 63.4044 79.5181 63.4044 91.1801V123.548C63.4044 135.21 66.5244 146.515 86.9244 146.515H135.764C156.284 146.515 159.404 135.091 159.404 123.548Z" fill="#FE85C1"/>
<path d="M73.6054 124.026C73.6054 130.214 83.2054 130.214 83.2054 124.026V90.5872C83.2054 84.3992 73.6054 84.3992 73.6054 90.5872V124.026Z" fill="#FFC0DF"/>
<path d="M135.881 68.0938H86.9211C71.5611 68.0938 66.0411 74.5198 64.1211 82.6117C84.4011 79.2798 98.801 79.5178 110.801 79.5178H111.401C123.401 79.5178 138.281 79.2798 158.561 82.6117C156.761 74.6388 151.241 68.0938 135.881 68.0938Z" fill="#FFC4E1"/>
<path d="M87.7583 72.8573C88.3583 76.7843 73.5983 79.1643 72.9983 75.3563C72.3983 71.4293 87.1583 69.0493 87.7583 72.8573Z" fill="#FFE2F0"/>
<path d="M141.995 146.04H80.795V147.706H141.995V146.04Z" fill="#D4A01D"/>
<path d="M134.451 66.4225H88.3711V68.0885H134.451V66.4225Z" fill="#E95DA2"/>
<path d="M95.1974 62.7387V51.9097C95.1974 49.2917 91.4774 49.2917 91.4774 51.9097V62.7387C91.3574 65.3567 95.1974 65.3567 95.1974 62.7387Z" fill="#FFE2F0"/>
<path d="M156.57 107.001C155.97 106.644 155.49 106.882 154.89 107.12C153.33 107.953 150.69 110.214 147.81 111.88C147.93 111.404 147.93 110.809 147.69 110.452L147.57 110.333C148.17 109.024 149.01 108.31 149.37 108.072C149.73 108.191 150.09 108.191 150.45 108.072C150.57 108.072 150.69 107.953 150.69 107.834C151.05 107.477 151.29 106.882 151.05 106.406C151.05 106.287 150.93 106.287 150.93 106.168C150.57 105.692 149.97 105.692 149.49 105.93C149.37 105.93 149.25 106.049 149.25 106.168C148.89 106.406 148.77 106.882 148.89 107.358C148.41 107.715 147.57 108.429 146.97 109.738C146.97 109.738 146.97 109.738 146.85 109.738C146.73 109.738 146.61 109.738 146.49 109.738C146.25 108.548 146.61 107.358 146.73 106.882C146.85 106.882 146.97 106.882 147.09 106.763C147.33 106.644 147.57 106.287 147.69 106.049C147.81 105.692 147.81 105.335 147.57 105.097C147.45 104.859 147.21 104.621 146.97 104.621C146.73 104.502 146.37 104.621 146.13 104.74C145.89 104.859 145.65 105.216 145.53 105.454C145.41 105.811 145.41 106.168 145.65 106.406C145.65 106.525 145.77 106.644 145.89 106.644C145.77 107.239 145.41 108.667 145.65 109.976C145.29 110.214 144.93 110.571 144.81 111.047C143.37 108.072 142.41 104.74 141.57 103.193C141.21 102.717 140.97 102.122 140.25 102.122C139.77 102.122 139.41 102.36 139.05 102.479C135.69 104.383 134.13 110.809 135.45 113.665C135.57 113.903 135.81 114.022 135.93 114.141C135.81 114.498 135.69 114.855 135.57 115.212C135.21 117.116 134.97 119.02 135.57 120.091C135.57 120.21 135.69 120.329 135.81 120.448C136.41 121.162 137.37 121.043 138.33 120.805C139.29 120.567 140.37 120.091 141.45 119.496C142.05 119.139 142.65 118.782 143.25 118.544C143.25 119.02 143.25 119.377 143.49 119.615C143.61 119.734 143.73 119.972 143.97 119.972C144.21 120.091 144.45 119.972 144.57 119.853C144.81 119.734 145.05 119.377 145.29 119.02C145.53 119.615 145.89 120.21 146.13 120.805C146.73 121.876 147.33 122.828 147.93 123.661C148.65 124.375 149.37 124.97 150.21 124.732C150.33 124.732 150.45 124.613 150.57 124.613C151.65 124.018 152.49 122.352 153.21 120.567C153.33 120.21 153.45 119.853 153.57 119.496C153.81 119.496 154.05 119.496 154.29 119.377C156.93 117.711 159.21 111.404 157.53 108.072C157.17 107.715 156.93 107.358 156.57 107.001Z" fill="#E95DA2"/>
<path d="M65.6064 108.072C63.9264 111.523 66.2064 117.711 68.8464 119.377C69.0864 119.496 69.3264 119.496 69.5664 119.496C69.6864 119.853 69.8064 120.21 69.9264 120.567C70.6464 122.352 71.6064 124.018 72.5664 124.613C72.6864 124.613 72.8064 124.732 72.9264 124.732C73.8864 124.97 74.6064 124.375 75.2064 123.661C75.9264 122.947 76.5264 121.876 77.0064 120.805C77.3664 120.21 77.6064 119.615 77.8464 119.02C78.0864 119.377 78.3264 119.615 78.5664 119.853C78.6864 119.972 78.9264 119.972 79.1664 119.972C79.4064 119.853 79.5264 119.734 79.6464 119.615C79.7664 119.377 79.8864 118.901 79.8864 118.544C80.3664 118.901 80.9664 119.258 81.6864 119.496C82.7664 120.091 83.8464 120.567 84.8064 120.805C85.7664 121.043 86.7264 121.162 87.3264 120.448C87.4464 120.329 87.4464 120.21 87.5664 120.091C88.0464 119.02 87.9264 117.116 87.5664 115.212C87.4464 114.855 87.3264 114.498 87.2064 114.141C87.4464 114.022 87.5664 113.784 87.6864 113.665C87.6864 113.665 87.6864 113.546 87.6864 113.665C89.0064 110.809 87.3264 104.383 84.0864 102.479C83.7264 102.241 83.2464 102.122 82.8864 102.122C82.1664 102.122 81.9264 102.598 81.5664 103.193C80.7264 104.74 79.7664 108.072 78.3264 111.047C78.2064 110.571 77.8464 110.214 77.4864 109.976C77.7264 108.548 77.3664 107.239 77.2464 106.644C77.3664 106.525 77.3664 106.525 77.4864 106.406C77.6064 106.168 77.7264 105.811 77.6064 105.454C77.4864 105.097 77.2464 104.859 77.0064 104.74C76.7664 104.621 76.5264 104.621 76.1664 104.621C75.9264 104.74 75.6864 104.859 75.5664 105.097C75.4464 105.216 75.4464 105.573 75.5664 105.811C75.6864 106.168 75.9264 106.406 76.1664 106.525C76.2864 106.525 76.4064 106.644 76.5264 106.644C76.6464 107.239 76.8864 108.429 76.7664 109.5C76.6464 109.5 76.5264 109.5 76.4064 109.5C76.4064 109.5 76.4064 109.5 76.2864 109.5C75.6864 108.191 74.8464 107.477 74.3664 107.12C74.4864 106.644 74.2464 106.287 74.0064 105.93C73.8864 105.811 73.8864 105.811 73.7664 105.692C73.2864 105.454 72.6864 105.454 72.3264 105.93C72.3264 106.049 72.2064 106.049 72.2064 106.168C71.9664 106.644 72.0864 107.239 72.5664 107.596C72.6864 107.715 72.6864 107.715 72.8064 107.834C73.1664 107.953 73.5264 108.072 73.8864 107.834C74.2464 108.072 75.0864 108.786 75.6864 110.095L75.5664 110.214C75.3264 110.69 75.3264 111.166 75.4464 111.642C72.5664 109.976 69.9264 107.715 68.3664 106.882C67.7664 106.644 67.2864 106.287 66.6864 106.763C66.0864 107.358 65.8464 107.715 65.6064 108.072Z" fill="#E95DA2"/>
<path d="M125.214 105.342C127.136 105.342 128.694 103.85 128.694 102.01C128.694 100.17 127.136 98.6779 125.214 98.6779C123.292 98.6779 121.734 100.17 121.734 102.01C121.734 103.85 123.292 105.342 125.214 105.342Z" fill="#EFF0EF"/>
<path d="M97.6519 105.342C99.5737 105.342 101.132 103.85 101.132 102.01C101.132 100.17 99.5737 98.6779 97.6519 98.6779C95.7299 98.6779 94.1719 100.17 94.1719 102.01C94.1719 103.85 95.7299 105.342 97.6519 105.342Z" fill="#EFF0EF"/>
<path d="M129.912 98.3145C128.472 97.7195 126.912 97.1245 125.352 97.1245C124.872 97.1245 124.512 97.1245 124.032 97.2435C123.912 97.2435 123.912 97.2435 123.792 97.3625C123.552 97.3625 123.432 97.4815 123.192 97.6005C121.992 98.0765 121.032 98.7905 120.312 99.7425C120.312 99.8615 120.192 99.8615 120.192 99.8615C120.192 99.8615 120.192 99.9805 120.072 99.9805C119.232 101.171 118.752 102.718 118.752 104.265C118.752 108.311 121.752 111.524 125.352 111.524C129.072 111.524 131.952 108.311 131.952 104.265C131.952 103.313 131.832 102.48 131.472 101.766C131.712 101.766 132.072 101.766 132.432 101.647C133.512 101.171 134.112 99.1475 134.112 98.7905C133.392 99.1475 131.712 99.1475 129.912 98.3145ZM125.232 104.384C123.792 104.384 122.712 103.313 122.712 102.004C122.712 100.695 123.792 99.6235 125.232 99.6235C126.672 99.6235 127.752 100.695 127.752 102.004C127.752 103.313 126.672 104.384 125.232 104.384Z" fill="black"/>
<path d="M102.918 100.1L102.798 99.9814C102.798 99.8624 102.678 99.8624 102.678 99.8624C101.958 98.9104 100.878 98.0774 99.7981 97.7204C99.5581 97.6014 99.4381 97.6014 99.1981 97.4824C99.0781 97.4824 99.0781 97.4824 98.9581 97.3634C98.4783 97.2444 98.1183 97.2444 97.6383 97.2444C95.9583 97.2444 94.3983 97.9584 93.0783 98.4344C91.2783 99.1484 89.4783 99.2674 88.8783 98.9104C88.7583 99.2674 89.4783 101.409 90.5583 101.766C90.9183 101.885 91.1583 101.885 91.5183 101.885C91.2783 102.718 91.0383 103.551 91.0383 104.384C91.0383 108.43 94.0383 111.643 97.6383 111.643C101.358 111.643 104.238 108.43 104.238 104.384C104.238 102.718 103.758 101.29 102.918 100.1ZM97.6383 104.384C96.1983 104.384 95.1183 103.313 95.1183 102.004C95.1183 100.695 96.1983 99.6244 97.6383 99.6244C99.0781 99.6244 100.158 100.695 100.158 102.004C100.158 103.313 98.9581 104.384 97.6383 104.384Z" fill="black"/>
<path d="M100.892 122.116C102.572 123.782 107.132 126.281 111.452 126.4C115.772 126.519 120.812 124.615 120.812 124.615C121.292 124.377 124.772 123.068 121.892 125.567C119.012 127.947 115.652 129.018 111.452 129.018C111.452 129.018 111.452 129.018 111.332 129.018C107.492 129.018 103.052 127.947 100.532 123.901C100.172 123.306 99.2121 120.45 100.892 122.116Z" fill="black"/>
<path d="M87.2145 92.954C88.4145 85.457 99.8145 86.528 102.335 88.075C102.815 88.313 103.055 89.146 102.935 89.86C102.815 90.455 102.095 91.526 101.615 91.288C99.6945 90.098 89.7345 89.265 87.4545 94.263C87.0945 93.787 87.2145 92.954 87.2145 92.954Z" fill="black"/>
<path d="M135.687 92.3642C135.207 84.8672 123.807 84.7482 121.167 86.0572C120.687 86.2952 120.327 87.0092 120.447 87.7232C120.447 88.4372 121.167 89.5082 121.647 89.2702C123.687 88.1992 133.767 88.3182 135.447 93.5542C135.687 93.1972 135.687 92.3642 135.687 92.3642Z" fill="black"/>
<path d="M152.386 111.872C152.986 112.229 153.106 112.705 152.986 113.181C152.746 113.776 152.266 113.895 151.666 113.538C151.066 113.3 150.706 112.705 151.066 112.229C151.306 111.872 151.786 111.634 152.386 111.872ZM143.506 116.632C143.146 117.227 143.266 117.584 143.866 117.822C144.466 118.179 145.186 118.06 145.306 117.465C145.426 116.751 145.426 116.632 144.826 116.275C144.226 116.037 143.866 116.156 143.506 116.632ZM138.466 109.135C138.106 109.73 138.226 110.087 138.826 110.325C139.426 110.682 140.146 110.563 140.266 109.968C140.386 109.254 140.386 109.135 139.786 108.778C139.186 108.54 138.826 108.659 138.466 109.135Z" fill="#8F2733"/>
<path d="M70.408 111.751C70.888 111.394 71.128 111.394 71.728 111.751C72.328 112.108 72.088 112.822 71.608 113.179C71.128 113.536 70.768 113.536 70.288 113.06C69.808 112.465 69.928 112.108 70.408 111.751ZM80.368 110.561C80.728 111.037 81.208 111.037 81.688 110.68C82.168 110.323 82.408 109.609 81.928 109.252C81.328 108.895 81.088 108.895 80.608 109.252C80.008 109.609 79.888 109.966 80.368 110.561ZM77.728 118.177C78.088 118.653 78.568 118.653 79.048 118.296C79.528 117.939 79.768 117.225 79.288 116.868C78.688 116.511 78.448 116.511 77.968 116.868C77.368 117.225 77.248 117.701 77.728 118.177Z" fill="#8F2733"/>
<path d="M139.251 63.444V52.139C139.251 49.64 138.291 45.118 132.291 43.69C129.891 43.095 123.651 42.5 113.451 42.5C112.851 42.5 112.131 42.5 111.411 42.5C110.691 42.5 110.091 42.5 109.371 42.5C99.1713 42.5 92.9313 43.095 90.5313 43.69C84.5313 45.118 83.5713 49.64 83.5713 52.139V63.444C58.6113 65.11 58.6113 84.507 58.6113 91.171V123.539C58.6113 129.132 58.6113 145.316 76.0113 149.957V156.74C76.0113 159.358 78.1713 161.5 80.8113 161.5H142.011C144.651 161.5 146.811 159.358 146.811 156.74V149.957C164.211 145.197 164.211 129.013 164.211 123.539V91.171C164.211 84.507 164.211 65.11 139.251 63.444ZM80.8113 156.74C80.8113 154.717 80.8113 152.099 80.8113 149.6H142.011C142.011 152.099 142.011 154.717 142.011 156.74H80.8113ZM159.411 123.539C159.411 133.892 156.891 144.007 142.011 146.149H80.8113C65.9313 143.888 63.4113 133.773 63.4113 123.539V91.171C63.4113 79.509 66.5313 68.204 86.9313 68.204H88.2513V52.139C88.2513 49.64 89.6913 48.807 91.4913 48.331C93.5313 47.855 99.1713 47.26 109.371 47.26C109.971 47.26 110.691 47.26 111.411 47.26C112.131 47.26 112.731 47.26 113.451 47.26C123.651 47.26 129.411 47.855 131.211 48.331C133.011 48.807 134.451 49.64 134.451 52.139V68.085H135.771C156.171 68.085 159.291 79.509 159.291 91.052V123.539H159.411Z" fill="black"/>
<defs>
<filter id="filter0_d_35_821" x="0.111328" y="0.5" width="225" height="225" filterUnits="userSpaceOnUse" color-interpolation-filters="sRGB">
<feFlood flood-opacity="0" result="BackgroundImageFix"/>
<feColorMatrix in="SourceAlpha" type="matrix" values="0 0 0 0 0 0 0 0 0 0 0 0 0 0 0 0 0 0 127 0" result="hardAlpha"/>
<feOffset dy="11"/>
<feGaussianBlur stdDeviation="10"/>
<feComposite in2="hardAlpha" operator="out"/>
<feColorMatrix type="matrix" values="0 0 0 0 0 0 0 0 0 0 0 0 0 0 0 0 0 0 0.34 0"/>
<feBlend mode="normal" in2="BackgroundImageFix" result="effect1_dropShadow_35_821"/>
<feBlend mode="normal" in="SourceGraphic" in2="effect1_dropShadow_35_821" result="shape"/>
</filter>
<linearGradient id="paint0_linear_35_821" x1="111.411" y1="68.1463" x2="111.411" y2="47.2672" gradientUnits="userSpaceOnUse">
<stop stop-color="#FE85C1"/>
<stop offset="1" stop-color="#FFA6D2"/>
</linearGradient>
<linearGradient id="paint1_linear_35_821" x1="80.7766" y1="151.28" x2="142.017" y2="151.28" gradientUnits="userSpaceOnUse">
<stop stop-color="#FF9DCE"/>
<stop offset="1" stop-color="#FFAFD7"/>
</linearGradient>
<linearGradient id="paint2_linear_35_821" x1="111.404" y1="146.473" x2="111.404" y2="68.1485" gradientUnits="userSpaceOnUse">
<stop stop-color="#FF96CA"/>
<stop offset="1" stop-color="#FFB4D9"/>
</linearGradient>
</defs>
</svg>
