<svg width="50" height="50" viewBox="0 0 50 50" fill="none" xmlns="http://www.w3.org/2000/svg">
<circle cx="24.541" cy="25" r="24" fill="#FDF195"/>
<circle cx="24.541" cy="25" r="24" fill="black"/>
<circle cx="24.541" cy="25" r="24" stroke="black"/>
<circle cx="24.541" cy="25" r="24" stroke="white"/>
<path d="M32.9774 13.576V10.2264C32.9774 9.48592 32.6865 8.14607 30.8683 7.72295C30.141 7.54666 28.2501 7.37036 25.1592 7.37036C24.9774 7.37036 24.7592 7.37036 24.541 7.37036C24.3228 7.37036 24.141 7.37036 23.9228 7.37036C20.8319 7.37036 18.941 7.54666 18.2137 7.72295C16.3956 8.14607 16.1047 9.48592 16.1047 10.2264V13.576C8.54102 14.0696 8.54102 19.8169 8.54102 21.7914V31.3819C8.54102 33.0391 8.54102 37.8344 13.8137 39.2095V41.2192C13.8137 41.995 14.4683 42.6296 15.2683 42.6296H33.8137C34.6137 42.6296 35.2683 41.995 35.2683 41.2192V39.2095C40.541 37.7991 40.541 33.0038 40.541 31.3819V21.7914C40.541 19.8169 40.541 14.0696 32.9774 13.576ZM15.2683 41.2192C15.2683 40.6198 15.2683 39.8441 15.2683 39.1037H33.8137C33.8137 39.8441 33.8137 40.6198 33.8137 41.2192H15.2683ZM39.0865 31.3819C39.0865 34.4495 38.3228 37.4465 33.8137 38.0812H15.2683C10.7592 37.4113 9.99556 34.4142 9.99556 31.3819V21.7914C9.99556 18.336 10.941 14.9864 17.1228 14.9864H17.5228V10.2264C17.5228 9.48592 17.9592 9.2391 18.5047 9.09807C19.1228 8.95703 20.8319 8.78073 23.9228 8.78073C24.1047 8.78073 24.3228 8.78073 24.541 8.78073C24.7592 8.78073 24.941 8.78073 25.1592 8.78073C28.2501 8.78073 29.9956 8.95703 30.541 9.09807C31.0865 9.2391 31.5228 9.48592 31.5228 10.2264V14.9511H31.9228C38.1047 14.9511 39.0501 18.336 39.0501 21.7561V31.3819H39.0865Z" fill="#EEBD17"/>
</svg>
