<svg width="74" height="74" viewBox="0 0 74 74" fill="none" xmlns="http://www.w3.org/2000/svg">
<path d="M71.8942 37.3061C71.8942 56.5387 56.291 72.1317 37.0412 72.1317C17.7914 72.1317 2.18829 56.5387 2.18829 37.3061C2.18829 18.0735 17.7914 2.48047 37.0412 2.48047C56.291 2.48047 71.8942 18.0735 71.8942 37.3061Z" fill="#FDF195" stroke="black" stroke-width="3"/>
<rect x="17.0413" y="26.8413" width="40" height="31.9649" rx="5" fill="white" stroke="black" stroke-width="2"/>
<path d="M28.1729 26.557V20.8062C28.1729 18.0447 30.4115 15.8062 33.1729 15.8062H40.9096C43.6711 15.8062 45.9096 18.0447 45.9096 20.8062V26.557" stroke="black" stroke-width="2"/>
<path d="M28.2824 46.0093C26.5893 46.0093 25.2168 44.5832 25.2168 42.8239C25.2168 41.0646 26.5893 39.6384 28.2824 39.6384H33.9756V33.7226C33.9756 31.9633 35.3482 30.5371 37.0413 30.5371C38.7343 30.5371 40.1069 31.9633 40.1069 33.7226V39.6384H45.8002C47.4932 39.6384 48.8658 41.0646 48.8658 42.8239C48.8658 44.5832 47.4932 46.0093 45.8002 46.0093H40.1069V51.9251C40.1069 53.6844 38.7343 55.1106 37.0413 55.1106C35.3482 55.1106 33.9756 53.6844 33.9756 51.9251V46.0093H28.2824Z" fill="#FF0606" stroke="black" stroke-width="2"/>
</svg>
