<svg width="74" height="74" viewBox="0 0 74 74" fill="none" xmlns="http://www.w3.org/2000/svg">
<path d="M71.8297 37.1176C71.8297 56.3502 56.2266 71.9432 36.9768 71.9432C17.727 71.9432 2.12384 56.3502 2.12384 37.1176C2.12384 17.885 17.727 2.29199 36.9768 2.29199C56.2266 2.29199 71.8297 17.885 71.8297 37.1176Z" fill="#E1FFAF" stroke="black" stroke-width="3"/>
<path d="M20.6373 52.1235C20.6373 54.885 22.8759 57.1235 25.6373 57.1235H50.5184C53.2799 57.1235 55.5184 54.885 55.5184 52.1235V48.158H20.6373V52.1235Z" fill="#D4A01D" stroke="black" stroke-width="2"/>
<path d="M20.6373 25.1003C20.6373 22.3389 22.8759 20.1003 25.6373 20.1003H50.5184C53.2799 20.1003 55.5184 22.3389 55.5184 25.1003V29.0659H20.6373V25.1003Z" fill="#D4A01D" stroke="black" stroke-width="2"/>
<rect x="19.4327" y="37.1956" width="37.2902" height="2.98852" rx="1.49426" fill="#FAD81E"/>
<rect x="19.4327" y="40.177" width="37.2902" height="2.98851" rx="1.49426" fill="#BD2E01"/>
<rect x="19.4329" y="34.2002" width="37.2902" height="2.98851" rx="1.49426" fill="#FF0606"/>
<path d="M19.4883 47.2739L13.9768 41.5558L20.9722 43.975V41.5558L27.9676 43.975H36.8708L42.5943 41.5558V43.975H51.0736L54.4653 41.5558L59.9768 43.975L56.5851 47.2739H19.4883Z" fill="#31F52D" stroke="black"/>
<path d="M19.5271 30.113L14.0209 35.8311L21.0096 33.4119V35.8311L27.9983 33.4119H36.8929L42.6109 35.8311V33.4119H51.0821L54.4705 35.8311L59.9767 33.4119L56.5883 30.113H19.5271Z" fill="#31F52D" stroke="black"/>
</svg>
