<svg width="74" height="74" viewBox="0 0 74 74" fill="none" xmlns="http://www.w3.org/2000/svg">
<path d="M71.8942 37.3061C71.8942 56.5387 56.291 72.1317 37.0412 72.1317C17.7914 72.1317 2.18829 56.5387 2.18829 37.3061C2.18829 18.0735 17.7914 2.48047 37.0412 2.48047C56.291 2.48047 71.8942 18.0735 71.8942 37.3061Z" fill="#8287FF" stroke="black" stroke-width="3"/>
<path d="M38.0641 34.0176H20.9344C18.7843 34.0176 17.0413 35.7331 17.0413 37.8492C17.0413 39.9654 18.7843 41.6808 20.9344 41.6808H28.8774L23.2381 47.2311C21.7177 48.7274 22.151 51.6578 23.2381 52.6498C24.3252 53.6418 24.8474 53.806 26.0305 53.806H27.1849H43.1602C45.3103 53.806 47.0533 52.0905 47.0533 49.9744C47.0533 47.8582 45.3103 46.1428 43.1602 46.1428H35.3552C35.3552 46.1428 40.3394 41.2794 40.8563 40.7286C41.9572 39.7597 41.9572 37.8492 41.9572 37.8492C41.9572 35.7331 40.2142 34.0176 38.0641 34.0176Z" fill="white" stroke="black" stroke-width="2"/>
<path d="M51.0397 20.8062H39.6033C38.1678 20.8062 37.0041 21.9515 37.0041 23.3643C37.0041 24.7771 38.1678 25.9224 39.6033 25.9224H44.9063L41.1413 29.628C40.1263 30.627 40.4155 32.5834 41.1413 33.2457C41.8672 33.908 42.2158 34.0177 43.0056 34.0177H43.7764H54.4421C55.8776 34.0177 57.0413 32.8723 57.0413 31.4595C57.0413 30.0467 55.8776 28.9014 54.4421 28.9014H49.2312C49.2312 28.9014 52.5588 25.6544 52.9039 25.2867C53.6389 24.6398 53.6389 23.3643 53.6389 23.3643C53.6389 21.9515 52.4752 20.8062 51.0397 20.8062Z" fill="white" stroke="black" stroke-width="2"/>
</svg>
