<svg width="74" height="74" viewBox="0 0 74 74" fill="none" xmlns="http://www.w3.org/2000/svg">
<path d="M71.9586 37.1176C71.9586 56.3502 56.3555 71.9432 37.1057 71.9432C17.8559 71.9432 2.25275 56.3502 2.25275 37.1176C2.25275 17.885 17.8559 2.29199 37.1057 2.29199C56.3555 2.29199 71.9586 17.885 71.9586 37.1176Z" fill="#E681FF" stroke="black" stroke-width="3"/>
<path d="M19.2115 26.591L12.2396 41.8302C10.6644 45.2733 12.1259 49.366 15.5039 50.9716C18.8819 52.5771 22.8973 51.0875 24.4725 47.6444C24.4725 47.6444 25.763 45.0192 26.5951 43.8346C29.3038 39.9785 33.0598 39.2289 37.2399 39.2289C41.4201 39.2289 44.9786 40.0615 47.6347 43.8346C48.6933 45.3385 49.7389 47.6444 49.7389 47.6444C51.3141 51.0875 55.3295 52.5771 58.7075 50.9715C62.0855 49.366 63.547 45.2733 61.9718 41.8302L54.9999 26.591C53.4247 23.1479 49.4093 21.6583 46.0313 23.2638C46.0313 23.2638 40.902 24.9593 37.2399 24.9955C33.4794 25.0327 28.1801 23.2638 28.1801 23.2638C24.8021 21.6583 20.7867 23.1479 19.2115 26.591Z" fill="black"/>
<ellipse cx="27.5133" cy="33.1992" rx="3.7493" ry="3.82152" fill="#FF0606"/>
<ellipse cx="47.4463" cy="33.1992" rx="3.7493" ry="3.82152" fill="#04BF00"/>
</svg>
